<svg xmlns="http://www.w3.org/2000/svg" viewBox="0 0 508.69 53.86"><defs><style>.cls-1{fill:#045922;}</style></defs><title>Leezenstadt_gruen</title><g id="Ebene_2" data-name="Ebene 2"><g id="Ebene_1-2" data-name="Ebene 1"><path class="cls-1" d="M490.94,18.35a18.44,18.44,0,0,0-2.7.23L485,3.25a.54.54,0,0,0-.05-.11.64.64,0,0,0-.08-.19.57.57,0,0,0-.12-.15.8.8,0,0,0-.13-.13,1,1,0,0,0-.18-.1s-.06,0-.1-.06L477.42.21a1,1,0,0,0-1.26.63,1,1,0,0,0,.63,1.27l6.37,2.11,1.11,5.26H450.33l-.71-3.58a1,1,0,0,0-.11-.28h6.64a1,1,0,0,0,0-2H442.78a1,1,0,0,0,0,2h5a1,1,0,0,0-.12.66l.8,4.05-5,9.58a17.57,17.57,0,0,0-7.21-1.56A17.76,17.76,0,1,0,452.6,42.92l.42.14h0a4.84,4.84,0,0,0,2,.44,4.87,4.87,0,0,0,4.44-7L485.86,17l.43,2a17.69,17.69,0,1,0,4.65-.64Zm-41.86-4.88,2.82,14.29a17.82,17.82,0,0,0-6.65-6.94Zm6.65,23.39-.22-1.12a3,3,0,0,1,1.14.44Zm-5.34,3.2-10-3.41L450.93,36a4.84,4.84,0,0,0-.78,2.64A5,5,0,0,0,450.39,40.06ZM438,34.8l6.35-12.21a15.79,15.79,0,0,1,7.52,11.32Zm-1.71,17.06a15.76,15.76,0,1,1,6.29-30.19l-7,13.45a1,1,0,0,0-.81.66,1,1,0,0,0,.62,1.27l15.35,5.23A15.74,15.74,0,0,1,436.27,51.86ZM458,38.61a2.91,2.91,0,1,1-4.41-2.48l.52,2.67v0a.61.61,0,0,0,.05.12,1.12,1.12,0,0,0,.1.22l0,0,.06,0a1,1,0,0,0,.25.21.31.31,0,0,0,.1,0,.86.86,0,0,0,.39.09h.2l0,0a.8.8,0,0,0,.25-.11l.09,0h0l2.18-1.62A2.76,2.76,0,0,1,458,38.61Zm.33-3.65a4.83,4.83,0,0,0-3.19-1.25l-4.38-22.23h34l.71,3.33Zm32.65,16.9a15.75,15.75,0,0,1-4.24-30.92L490,36.31a1,1,0,0,0,1,.79l.2,0a1,1,0,0,0,.77-1.18l-3.25-15.37a17,17,0,0,1,2.28-.18,15.76,15.76,0,0,1,0,31.51Z"/><path class="cls-1" d="M26.5,49.24H0V.77H4.32V45.33H26.5Z"/><path class="cls-1" d="M33.48,49.24V.77H62.56v3.9H37.8v18H58.37V26.5H37.8V45.4H62.56v3.84Z"/><path class="cls-1" d="M72,49.24V.77h29.09v3.9H76.3v18H96.87V26.5H76.3V45.4h24.76v3.84Z"/><path class="cls-1" d="M107.4,4.67V.77h31.39V6.56L112.21,43.94V45.4h26.58v3.91H107.4V43.59L134,6.21V4.67Z"/><path class="cls-1" d="M147.92,49.24V.77H177v3.9H152.25v18h20.57V26.5H152.25V45.4H177v3.84Z"/><path class="cls-1" d="M186.42,49.24V.77h8.51L215.22,45.4h1.61V.77h4.25V49.24h-8.37L192.28,4.67h-1.54V49.24Z"/><path class="cls-1" d="M246.4,3.84q-11.24,0-11.23,8.57,0,5,2.54,6.77t10,3.21q7.42,1.45,10.6,4c2.11,1.72,3.17,4.61,3.17,8.65q0,7.81-3.87,11.26T246.26,49.8a95.43,95.43,0,0,1-12.63-1l-2.51-.35.49-3.69A128.62,128.62,0,0,0,246.4,46c3.49,0,6.13-.85,7.95-2.54s2.72-4.19,2.72-7.47-.8-5.51-2.41-6.69S250.5,27.15,247,26.5a66.61,66.61,0,0,1-7.71-1.77,17.33,17.33,0,0,1-4.56-2.31,8.29,8.29,0,0,1-3-3.83,16.6,16.6,0,0,1-.9-5.9Q230.78,0,246.12,0a95.78,95.78,0,0,1,12,1l2.31.35L260.07,5A128.92,128.92,0,0,0,246.4,3.84Z"/><path class="cls-1" d="M265.86,4.67V.77h34.87v3.9H285.52V49.24H281.2V4.67Z"/><path class="cls-1" d="M300,49.24l14-48.47H324L337.9,49.24h-4.25l-3.91-13.39H308.12l-3.84,13.39ZM317.05,4.53,309.17,32h19.52L320.81,4.53Z"/><path class="cls-1" d="M363.35,49.24H345.71V.77h17.64q17.23,0,17.23,23.57Q380.58,49.24,363.35,49.24Zm12.77-24.9q0-19.66-12.77-19.67H350V45.4h13.32Q376.12,45.4,376.12,24.34Z"/><path class="cls-1" d="M383.65,4.67V.77h34.87v3.9h-15.2V49.24H399V4.67Z"/></g></g></svg>